<?xml version="1.0" encoding="UTF-8"?>
<svg id="Layer_2" data-name="Layer 2" xmlns="http://www.w3.org/2000/svg" xmlns:xlink="http://www.w3.org/1999/xlink" viewBox="0 0 1207.27 420.08">
  <defs>
    <style>
      .cls-1, .cls-2 {
        fill: #f4f4f4;
      }

      .cls-1, .cls-2, .cls-3, .cls-4 {
        font-family: GasoekOne-Regular, 'Gasoek One';
      }

      .cls-1, .cls-3 {
        font-size: 50.87px;
      }

      .cls-5 {
        fill: #d5e8ef;
      }

      .cls-6 {
        letter-spacing: -.03em;
      }

      .cls-7 {
        letter-spacing: 0em;
      }

      .cls-2, .cls-4 {
        font-size: 258.26px;
      }

      .cls-8 {
        fill: #4caf50;
      }

      .cls-9 {
        letter-spacing: -.03em;
      }

      .cls-4, .cls-10 {
        fill: #070707;
      }

      .cls-11 {
        clip-path: url(#clippath);
      }
    </style>
    <clipPath id="clippath">
      <text class="cls-2" transform="translate(62.55 335.03) rotate(-5.46)"><tspan x="0" y="0">UNF</tspan><tspan class="cls-9" x="557.85" y="0">R</tspan><tspan x="744.57" y="0">OG</tspan></text>
    </clipPath>
  </defs>
  <g id="Layer_1-2" data-name="Layer 1">
    <g>
      <g>
        <text class="cls-4" transform="translate(41.11 361.98) rotate(-5.46)"><tspan x="0" y="0">UNF</tspan><tspan class="cls-9" x="557.85" y="0">R</tspan><tspan x="744.57" y="0">OG</tspan></text>
        <text class="cls-4" transform="translate(62.55 340.55) rotate(-5.46)"><tspan x="0" y="0">UNF</tspan><tspan class="cls-9" x="557.85" y="0">R</tspan><tspan x="744.57" y="0">OG</tspan></text>
      </g>
      <path class="cls-10" d="M119.77,372.8c-10.3,0-19.87-1.02-28.44-3.04-13.63-3.2-25.31-8.47-34.71-15.65-9.46-7.22-16.89-15.93-22.09-25.88-5.06-9.69-8.15-20.14-9.19-31.05l-12.72-133.17c-.49-5.15,1.54-9.96,5.09-13.2.32-.36.67-.7,1.02-1.02.32-.36.67-.7,1.02-1.02.32-.35.66-.69,1.01-1.01.33-.36.67-.7,1.03-1.03.32-.35.66-.69,1.01-1.01.33-.36.67-.7,1.03-1.03.33-.36.67-.7,1.02-1.02.32-.35.66-.69,1.02-1.02.33-.36.67-.7,1.02-1.02.32-.35.66-.69,1.01-1.01.33-.36.67-.7,1.03-1.03.32-.35.66-.69,1.01-1.01.33-.36.67-.7,1.03-1.03.33-.36.67-.7,1.02-1.02.32-.35.66-.69,1.02-1.02.33-.36.67-.7,1.02-1.02.32-.35.66-.69,1.01-1.01.33-.36.67-.7,1.03-1.03,2.64-2.89,6.26-4.7,10.17-5.08l83.3-7.95c.51-.05,1.02-.07,1.52-.07,1.95,0,3.83.36,5.58,1.02,2.04-1.25,4.36-2.04,6.78-2.27l83.3-7.95c.51-.05,1.02-.07,1.52-.07,1.41,0,2.79.19,4.11.54,1.69-.82,3.52-1.34,5.42-1.53l90.24-8.62c.51-.05,1.01-.07,1.51-.07,2.88,0,5.64.79,8.03,2.19,2.49-2.2,5.62-3.57,8.97-3.89l76.36-7.29c.5-.05,1-.07,1.5-.07,1.54,0,3.06.22,4.52.66,1.79-.93,3.76-1.52,5.8-1.72l157.34-15.03c.51-.05,1.02-.07,1.52-.07,1.32,0,2.61.16,3.84.47,1.62-.75,3.37-1.24,5.18-1.41l117.75-11.25c3.28-.31,6.55-.47,9.74-.47,9.51,0,18.72,1.41,27.37,4.19,12.62,4.06,23.22,11.57,31.5,22.34.07.1.15.19.22.29.24-.24.48-.48.72-.72l.2-.2c.27-.28.54-.55.82-.82l.2-.2c.27-.27.54-.55.82-.81l.19-.19c.28-.28.55-.56.84-.83l.19-.19c.27-.28.55-.55.83-.82l.19-.19c.28-.28.55-.56.84-.84l.19-.19c.27-.28.55-.56.83-.83l.2-.2c.27-.28.54-.55.82-.82l.2-.2c.27-.28.54-.55.82-.82l.19-.19c.27-.28.55-.55.83-.83l.19-.2c.27-.28.55-.55.83-.83l.19-.19c.27-.28.54-.55.83-.82l.19-.19c.28-.28.55-.56.84-.83l.19-.2c.29-.29.58-.58.87-.87,2.45-2.43,5.03-4.71,7.66-6.77,17.64-13.86,41.37-22.3,70.53-25.08,6.34-.61,12.54-.91,18.43-.91,21.38,0,40.14,4.04,55.76,12.01,11.08,5.66,20.11,12.95,27.02,21.82.23-.23.46-.46.69-.69l.14-.14c.28-.29.58-.58.87-.87l.15-.15c.28-.29.57-.57.86-.86l.17-.16c.28-.29.57-.58.87-.87l.15-.15c.29-.3.58-.59.88-.88l.14-.14c.28-.29.57-.58.86-.86l.16-.15c.3-.31.6-.61.91-.91l.11-.11c.28-.29.57-.58.86-.87l.16-.16c.28-.29.57-.58.86-.86l.15-.15c.29-.3.59-.6.89-.89l.13-.13c.28-.29.58-.58.87-.87l.16-.15c.29-.3.58-.59.88-.88l.14-.14c.29-.29.58-.59.88-.88l.15-.15c.29-.29.58-.58.87-.87l.15-.15c.28-.29.58-.58.87-.87l.15-.15c.28-.29.57-.58.87-.87l.16-.16c.28-.29.57-.57.85-.86l.17-.16c.28-.29.57-.58.87-.87l.14-.14c3.04-3.14,6.41-6.13,10.01-8.88,18.11-13.82,42.3-22.26,71.9-25.09,7.17-.68,14.13-1.03,20.68-1.03,22.16,0,41.21,3.98,56.6,11.83,21.79,11.12,34.95,29.32,38.06,52.63.03.2.05.39.07.59l.74,7.71c.28,2.95-.27,5.8-1.47,8.31,1.65,2.23,2.73,4.92,3.01,7.89l6.06,63.5c2.03,21.22-4.82,40.18-19.8,54.87-.34.34-.68.69-1.03,1.03-.33.34-.67.68-1.01,1.01-.34.34-.68.68-1.02,1.02-.34.34-.68.69-1.03,1.03-.33.34-.67.68-1.02,1.02-.34.34-.68.68-1.02,1.02-.34.34-.68.68-1.02,1.02-.34.34-.68.68-1.02,1.02-.34.34-.68.68-1.02,1.02-.34.34-.68.68-1.02,1.02-.33.34-.67.68-1.02,1.02-.34.34-.68.68-1.02,1.02-.34.34-.68.69-1.03,1.02-.33.34-.67.68-1.02,1.02-.34.34-.68.68-1.02,1.02-.33.34-.67.68-1.02,1.02-.34.34-.68.69-1.03,1.03-.34.34-.68.68-1.02,1.02-2.26,2.29-4.71,4.51-7.31,6.58-17.64,14.07-42.86,22.76-74.97,25.83-6.48.62-12.81.93-18.83.93-21.72,0-40.81-4.08-56.74-12.12-10.94-5.53-19.95-12.62-26.94-21.21-.29.3-.59.6-.89.89l-.14.14c-.29.29-.58.59-.88.88l-.14.14c-.3.3-.6.6-.9.9l-.12.12c-.28.29-.57.58-.87.87l-.16.15c-.28.29-.57.58-.86.86l-.16.16c-.28.29-.57.58-.86.86l-.16.16c-.29.3-.59.59-.88.88l-.13.13c-.29.29-.58.59-.88.88l-.15.15c-.29.29-.58.59-.88.88l-.14.14c-.3.3-.6.6-.9.9l-.12.12c-.28.29-.57.58-.86.87l-.15.15c-.29.3-.59.6-.89.89l-.13.13c-.3.31-.6.61-.91.91l-.11.11c-.3.31-.61.61-.91.91l-.11.11c-.29.3-.58.59-.88.88l-.14.14c-.29.3-.59.59-.88.89l-.14.14c-.29.3-.6.6-.9.9l-.12.12c-.28.29-.57.58-.86.87l-.14.14c-2.96,3.05-6.23,5.96-9.73,8.65-17.63,13.53-41.41,21.81-70.68,24.61-6.47.62-12.8.93-18.8.93-20.5,0-38.54-3.66-53.66-10.88-.12.11-.23.22-.35.33-.33.36-.67.7-1.02,1.02-.33.36-.67.7-1.02,1.02-.32.36-.67.7-1.02,1.02-.33.36-.67.7-1.02,1.02-.33.36-.67.7-1.02,1.02-.33.36-.67.7-1.02,1.02-.32.36-.66.7-1.02,1.02-.33.36-.67.7-1.02,1.02-.33.36-.67.7-1.03,1.03-2.61,2.86-6.23,4.7-10.18,5.08l-90.24,8.62c-.51.05-1.01.07-1.51.07-2.4,0-4.71-.54-6.8-1.54-2.23,1.65-4.92,2.73-7.89,3.01l-80.98,7.73c-.51.05-1.02.07-1.52.07-8.06,0-14.95-6.13-15.73-14.32l-5.03-52.64-34.34,3.28,3.37,35.25c.49,5.15-1.54,9.96-5.09,13.2-.32.36-.67.7-1.02,1.02-.32.35-.66.7-1.02,1.02-.32.36-.66.7-1.02,1.02-.32.36-.67.7-1.02,1.02-.32.35-.66.69-1.01,1.01-.33.36-.67.7-1.03,1.03-.32.35-.66.7-1.02,1.02-.32.36-.67.7-1.02,1.02-.32.35-.66.69-1.02,1.02-.32.36-.67.7-1.02,1.02-.32.35-.66.7-1.02,1.02-.32.35-.66.69-1.01,1.01-.33.36-.67.7-1.03,1.03-.32.35-.67.7-1.02,1.02-.32.36-.67.7-1.02,1.02-.32.35-.66.69-1.01,1.01-.33.36-.67.7-1.03,1.03-.32.35-.66.7-1.02,1.02-2.64,2.89-6.26,4.7-10.18,5.08l-80.98,7.73c-.5.05-1,.07-1.5.07-1.54,0-3.06-.22-4.52-.66-1.79.93-3.76,1.52-5.8,1.72l-83.3,7.95c-.51.05-1.01.07-1.51.07-4.42,0-8.56-1.85-11.5-4.97-.07.07-.14.13-.21.2-.33.36-.67.7-1.02,1.02-.33.36-.67.7-1.02,1.02-2.64,2.89-6.26,4.71-10.18,5.08l-76.36,7.29c-.51.05-1.02.07-1.52.07-8.06,0-14.95-6.13-15.73-14.32l-.82-8.54c-.25.25-.5.5-.76.76-.33.34-.67.68-1.02,1.02-.34.34-.68.68-1.02,1.02-.33.34-.67.68-1.01,1.01-.34.34-.68.69-1.03,1.03-.33.34-.67.68-1.02,1.02-7.78,7.99-18.17,14.73-30.88,20.03-12.98,5.41-29.27,9.08-48.41,10.91-6,.57-11.83.86-17.33.86Z"/>
      <path class="cls-10" d="M1190.72,177.17l-6.06-63.5-19.95,1.9-.05-.52,1.1-.23-.08-.79,1.1-.23-.08-.79,1.1-.23-.08-.79,1.1-.23-.08-.79,1.1-.23-.08-.79,1.1-.23-.08-.79,1.1-.23-.08-.79,1.1-.23-.08-.79,1.1-.23-.08-.79,1.1-.23-.08-.79,1.1-.23-.08-.79,1.1-.23-.08-.79,1.1-.23-.08-.79,1.1-.23-.08-.79,1.1-.23-.08-.79,1.1-.23-.08-.79,1.1-.23-.08-.79,1.1-.23-.74-7.71c-2.44-18.27-12.29-31.82-29.56-40.63-17.27-8.81-40.14-11.86-68.59-9.15-26.74,2.55-48.01,9.86-63.8,21.92-3.06,2.34-5.84,4.81-8.36,7.42-.34.34-.69.68-1.02,1.02-.34.34-.69.68-1.02,1.02-.34.34-.69.68-1.02,1.02-.34.34-.69.68-1.02,1.02-.34.34-.69.68-1.02,1.02-.34.34-.69.68-1.02,1.02-.34.34-.69.68-1.02,1.02-.34.34-.69.68-1.02,1.02-.34.34-.69.68-1.02,1.02-.34.34-.69.68-1.02,1.02-.34.34-.69.68-1.02,1.02-.34.34-.69.68-1.02,1.02-.34.34-.69.68-1.02,1.02-.34.34-.69.68-1.02,1.02-.34.34-.69.68-1.02,1.02-.34.34-.69.68-1.02,1.02-.34.34-.69.68-1.02,1.02-.34.34-.69.68-1.02,1.02-5.78,5.74-10.17,12.15-13.19,19.22-4.8-17.03-15.48-29.79-32.08-38.26-17.28-8.81-39.11-11.96-65.5-9.44-26.22,2.5-46.98,9.76-62.26,21.77-2.29,1.8-4.41,3.69-6.38,5.65-.35.33-.68.68-1.02,1.02-.35.34-.68.68-1.02,1.02-.35.33-.68.68-1.02,1.02-.35.33-.68.68-1.02,1.02-.35.33-.68.68-1.02,1.02-.35.33-.68.68-1.02,1.02-.35.34-.68.68-1.02,1.02-.35.33-.68.68-1.02,1.02-.35.34-.68.68-1.02,1.02-.35.33-.68.68-1.02,1.02-.35.33-.68.68-1.02,1.02-.35.33-.68.68-1.02,1.02-.35.33-.68.68-1.02,1.02-.35.34-.68.68-1.02,1.02-.35.33-.68.68-1.02,1.02-.35.34-.68.68-1.02,1.02-.35.33-.68.68-1.02,1.02-.35.33-.68.68-1.02,1.02-4.17,3.97-7.66,8.29-10.48,12.94-2.03-7.67-5.02-14.09-8.99-19.25-6.32-8.22-14.25-13.86-23.8-16.93-9.55-3.07-19.81-4.08-30.77-3.03l-117.75,11.25.09.91-1.11.11.09.91-1.11.11.09.91-1.11.11.09.91-1.11.11.09.91-1.11.11.09.91-1.11.11.09.91-1.11.11.09.91-1.11.11.09.91-1.11.11.09.91-.57.05-.87-9.15-157.34,15.03.09.91-1.11.11.09.91-1.11.11.09.91-1.11.11.09.91-1.11.11.09.91-1.11.11.09.91-1.11.11.09.91-1.11.11.09.91-1.11.11.09.91-1.11.11.09.91-1.11.11.09.91-.75.07-.96-10.06-76.36,7.29.1.91-1.12.11.1.91-1.12.11.1.91-1.12.11.1.91-1.12.11.1.91-1.12.11.1.91-1.12.11.1.91-1.12.11.1.91-1.12.11.1.91-1.12.11.1.91-1.12.11.1.91-1.12.11.1.91-1.12.11.1.91-1.12.11.1.91-1.05.1-4.29-12.52-90.24,8.62.09.91-1.11.11.09.91-1.11.11.09.91-1.11.11.09.91-1.11.11.09.91-1.11.11.09.91-1.11.11.09.91-1.11.11.09.91-1.11.11.09.91-1.11.11.09.91-1.08.1-.87-9.15-83.3,7.95.09.91-1.11.11.09.91-1.11.11.09.91-1.11.11.09.91-1.11.11.09.91-1.11.11.09.91-1.11.11.09.91-1.11.11.09.91-1.11.11.09.91-1.11.11.09.91-1.11.11.09.91-1.11.11.09.91-1.11.11.09.91-.59.06-1.14-11.89-83.3,7.95.09.91-1.11.11.09.91-1.11.11.09.91-1.11.11.09.91-1.11.11.09.91-1.11.11.09.91-1.11.11.09.91-1.11.11.09.91-1.11.11.09.91-1.11.11.09.91-1.11.11.09.91-1.11.11.09.91-1.11.11.09.91-1.11.11.09.91-1.11.11.09.91-1.11.11.09.91-1.11.11.09.91-1.11.11.09.91-1.11.11.09.91-1.11.11,12.72,133.17c.85,8.91,3.34,17.32,7.47,25.23,4.13,7.91,10.01,14.78,17.67,20.63,7.65,5.84,17.22,10.12,28.72,12.82,11.5,2.7,25.05,3.32,40.65,1.83,17.65-1.69,32.26-4.94,43.82-9.76,10.85-4.53,19.43-10.06,25.75-16.59.34-.34.69-.68,1.02-1.02.35-.34.69-.68,1.02-1.02.34-.34.69-.68,1.02-1.02.35-.34.69-.68,1.02-1.02.34-.34.69-.68,1.02-1.02.35-.34.69-.68,1.02-1.02.34-.34.69-.68,1.02-1.02.34-.34.69-.68,1.02-1.02.35-.34.69-.68,1.02-1.02.34-.34.69-.68,1.02-1.02.35-.34.69-.68,1.02-1.02.34-.34.69-.68,1.02-1.02.35-.34.69-.68,1.02-1.02.34-.34.69-.68,1.02-1.02.34-.34.69-.68,1.02-1.02.35-.34.69-.68,1.02-1.02.34-.34.69-.68,1.02-1.02.35-.34.69-.68,1.02-1.02.77-.76,1.52-1.53,2.23-2.31,3.52-3.9,6.42-8.03,8.7-12.38l4.34,45.42,76.36-7.29-.1-.91,1.12-.11-.1-.91,1.12-.11-.1-.91,1.12-.11-.1-.91,1.12-.11-.1-.91,1.12-.11-.1-.91,1.12-.11-.1-.91,1.12-.11-.1-.91,1.12-.11-.1-.91,1.12-.11-.1-.91,1.12-.11-.1-.91,1.12-.11-.1-.91,1.12-.11-.1-.91,1.12-.11-.1-.91,1.12-.11-.1-.91,1.12-.11-.1-.91,1.12-.11-.1-.91,1.12-.11-.1-.91,1.12-.11-.1-.91.93-.09,6.25,16.95,83.3-7.95-.09-.91,1.11-.11-.09-.91,1.11-.11-.09-.91,1.11-.11-.09-.91,1.11-.11-.09-.91,1.11-.11-.09-.91,1.11-.11-.09-.91,1.11-.11-.09-.91,1.11-.11-.09-.91,1.11-.11-.09-.91,1.11-.11-.09-.91.75-.07.96,10.06,80.98-7.73-.09-.91,1.11-.11-.09-.91,1.11-.11-.09-.91,1.11-.11-.09-.91,1.11-.11-.09-.91,1.11-.11-.09-.91,1.11-.11-.09-.91,1.11-.11-.09-.91,1.11-.11-.09-.91,1.11-.11-.09-.91,1.11-.11-.09-.91,1.11-.11-.09-.91,1.11-.11-.09-.91,1.11-.11-.09-.91,1.11-.11-.09-.91,1.11-.11-.09-.91,1.11-.11-.09-.91,1.11-.11-.09-.91,1.11-.11-.09-.91,1.11-.11-4.87-51,52.99-5.06-.09-.91,1.11-.11-.09-.91,1.11-.11-.09-.91,1.11-.11-.09-.91,1.11-.11-.09-.91,1.11-.11-.09-.91,1.11-.11-.09-.91,1.11-.11-.09-.91,1.11-.11-.09-.91,1.11-.11-.09-.91,1.11-.11-.09-.91,1.11-.11-.09-.91.67-.06,7.58,79.37,80.98-7.73-.09-.91,1.11-.11-.09-.91,1.11-.11-.09-.91,1.11-.11-.09-.91,1.11-.11-.09-.91,1.11-.11-.09-.91,1.11-.11-.09-.91,1.11-.11-.09-.91,1.11-.11-.09-.91,1.11-.11-.09-.91,1.11-.11-.09-.91,1.11-.11-.09-.91,1.11-.11v-.08s3.95,10.79,3.95,10.79l90.24-8.62-.5-.88,1.52-.15-.5-.88,1.52-.15-.5-.88,1.52-.15-.5-.88,1.52-.15-.5-.88,1.52-.15-.5-.88,1.52-.15-.5-.88,1.52-.15-.5-.88,1.52-.15-.5-.88,1.52-.15-.5-.88,1.52-.15-.5-.88,1.52-.15-.5-.88,1.52-.15-.5-.88,1.52-.15-.5-.88,1.52-.15-.5-.88,1.52-.15-.5-.88,1.52-.15-.5-.88,1.52-.15-.5-.88,1.52-.15-.27-.47c2.71,1.85,5.61,3.56,8.73,5.12,17.16,8.57,38.94,11.59,65.34,9.07,26.39-2.52,47.24-9.66,62.56-21.41,2.97-2.28,5.67-4.69,8.11-7.22.34-.34.69-.68,1.02-1.02.34-.34.69-.68,1.02-1.02.34-.34.69-.68,1.02-1.02.34-.34.69-.68,1.02-1.02.34-.34.69-.68,1.02-1.02.34-.34.69-.68,1.02-1.02.34-.34.69-.68,1.02-1.02.34-.34.69-.68,1.02-1.02.34-.34.69-.68,1.02-1.02.34-.34.69-.68,1.02-1.02.34-.34.69-.68,1.02-1.02.34-.34.69-.68,1.02-1.02.34-.34.69-.68,1.02-1.02.34-.34.69-.68,1.02-1.02.34-.34.69-.68,1.02-1.02.34-.34.69-.68,1.02-1.02.34-.34.69-.68,1.02-1.02.34-.34.69-.68,1.02-1.02,5.66-5.62,9.96-11.87,12.88-18.74,5.25,16.36,16.06,28.68,32.44,36.95,17.72,8.95,40.03,12.13,66.94,9.56,29.14-2.78,51.34-10.26,66.61-22.45,2.17-1.73,4.16-3.53,5.99-5.4.35-.34.69-.68,1.02-1.02.35-.34.69-.68,1.02-1.02.35-.34.68-.68,1.02-1.02.35-.34.69-.68,1.02-1.02.35-.34.68-.68,1.02-1.02.35-.34.69-.68,1.02-1.02.35-.34.69-.68,1.02-1.02.35-.34.69-.68,1.02-1.02.35-.34.69-.68,1.02-1.02.35-.34.68-.68,1.02-1.02.35-.34.69-.68,1.02-1.02.35-.34.68-.68,1.02-1.02.35-.34.69-.68,1.02-1.02.35-.34.69-.68,1.02-1.02.35-.34.69-.68,1.02-1.02.35-.34.69-.68,1.02-1.02.35-.34.68-.68,1.02-1.02.35-.34.69-.68,1.02-1.02,11.74-11.45,16.82-25.5,15.23-42.17ZM587.3,165.79l-.05-.48,1.11-.11-.09-.91,1.11-.11-.09-.91.57-.05.22,2.31-2.78.27ZM764.3,187.74s.05-.06.08-.09c.32-.31.64-.61.94-.93.03-.03.05-.06.08-.09.32-.31.64-.61.94-.93.03-.03.05-.06.08-.09.32-.31.64-.61.94-.93.03-.03.05-.06.08-.09.32-.31.64-.61.94-.93.03-.03.05-.06.08-.09.32-.31.64-.61.94-.93.03-.03.05-.06.08-.09.32-.31.64-.61.94-.93.03-.03.05-.06.08-.09.32-.31.64-.61.94-.93.03-.03.05-.06.08-.09.32-.31.64-.61.94-.93.03-.03.05-.06.08-.09.32-.31.64-.61.94-.93.03-.03.05-.06.08-.09.32-.31.64-.61.94-.93.03-.03.05-.06.08-.09.32-.31.64-.61.94-.93.03-.03.05-.06.08-.09.32-.31.64-.61.94-.93.03-.03.05-.06.08-.09.2-.2.4-.39.6-.59.33,5.16.76,10.56,1.3,16.21.9,9.43,1.95,18.19,3.16,26.29.2,1.33.4,2.61.59,3.85l-18.78-32.62c.27-.27.55-.53.8-.8Z"/>
      <g class="cls-11">
        <polygon class="cls-5" points="25.53 221.8 67.59 222.05 107.22 231.14 141.95 222.36 175.2 206.17 209.3 192.32 249.65 212.19 284.13 197.13 318.26 174.36 355.35 175.76 393.3 195 429.66 198.65 465.68 192.84 502.02 171.85 538.09 197.77 574.51 194.79 612.02 171.16 648.43 175.56 684.43 190.59 722.11 164.04 758.85 163.79 795.85 180.42 833.57 201.48 870.02 181.65 905.6 157.56 945.44 194.53 982.77 192.54 1020.4 192.82 1057.25 185.9 1092.53 168.49 1127.63 152.18 1165.74 155.32 1205.61 166.5 1231.31 139.6 1215.8 167.09 1203 203.43 1203.53 246.15 1169.19 268.04 1137.39 292.1 1101.33 296.95 1059.99 267.24 1024.71 277.17 992.05 304.29 955.44 305.51 922.7 332.05 882.99 313.02 846.84 317.26 807.97 303.72 774.03 322.39 742.81 358.91 705.15 353.26 671.15 371.57 632.34 358.46 594.22 349.82 558.54 357.15 526.94 391.18 488.01 377.29 454.46 398.56 415.95 387.39 376.91 372.74 346.01 411.37 309.42 412.74 275.87 434.03 234.2 402.2 202.51 435.64 166.94 443.77 131.23 450.96 99.75 419.24 82.05 404.76 59.66 380.04 24.2 364.72 24.48 323.7 5.57 296.47 -12.53 279.36 14.39 267.22 25.53 221.8"/>
      </g>
    </g>
    <path class="cls-8" d="M1016.45,292.16c17.78-2.18,25.43,1.78,29.03,6.19,3.7,4.53,2.84,9.15,7.35,17.03,4.11,7.18,9.69,11.83,13.94,14.71h-24c-1.28.24-13.7,2.31-22.57-6.34-7.92-7.72-9.65-20.71-3.75-31.6Z"/>
    <path class="cls-8" d="M62.2,176.83c-30.47-6.1-40.89-16.79-44.43-26.01-3.63-9.47.3-16.62-2.83-32.05-2.86-14.07-9.5-24.76-14.93-31.81,13.17,4.36,26.35,8.71,39.52,13.07,2.24.31,23.82,3.67,33.72,22.73,8.84,17.02,4.62,39.36-11.04,54.07Z"/>
    <path class="cls-8" d="M1136.89,56.33c-5.27-17.12-2.7-25.34,1-29.67,3.81-4.44,8.51-4.41,15.48-10.23,6.35-5.31,9.95-11.61,12.04-16.3,1.4,7.88,2.81,15.75,4.21,23.63.46,1.22,4.67,13.09-2.28,23.34-6.21,9.15-18.69,13.14-30.45,9.23Z"/>
    <g>
      <text class="cls-3" transform="translate(428.39 372.8) rotate(-5.46)"><tspan x="0" y="0">GET F</tspan><tspan class="cls-6" x="157.64" y="0">R</tspan><tspan class="cls-7" x="194.42" y="0">OGGE’D</tspan></text>
      <g>
        <path class="cls-10" d="M445.1,379.87c-5.05,0-9.55-.98-13.37-2.91-5.55-2.8-9.27-7.38-10.77-13.24,0-.03-.02-.07-.03-.1-.29-1.19-.55-2.61-.81-4.35-.25-1.62-.47-3.47-.66-5.48-.18-1.91-.3-3.7-.37-5.31-.07-1.73-.07-3.14,0-4.31.36-6.11,3.17-11.33,8.13-15.12,4.3-3.28,9.91-5.28,16.66-5.92,1.57-.15,3.09-.23,4.54-.23,5.15,0,9.64.96,13.37,2.86,5.7,2.91,9.29,7.91,10.12,14.07.01.1.02.2.03.29l.15,1.52c.05.55.05,1.09,0,1.62.16.51.26,1.04.31,1.58l1.19,12.51c.61,6.38-1.86,12.12-6.95,16.18-4.28,3.42-9.96,5.42-17.35,6.13-1.43.14-2.83.21-4.18.21Z"/>
        <path class="cls-10" d="M468.79,376.94c-4.08,0-7.56-3.1-7.95-7.24l-3.72-38.99c-.2-2.11.44-4.22,1.79-5.85,1.35-1.64,3.3-2.67,5.41-2.87l30.54-2.92c.25-.02.51-.04.76-.04,1.85,0,3.65.64,5.09,1.83,1.64,1.35,2.67,3.3,2.87,5.41l1.09,11.39c.16,1.65-.2,3.24-.94,4.6l.41,4.34c1.55,1.3,2.6,3.19,2.81,5.36l1.26,13.22c.2,2.11-.44,4.22-1.79,5.85-1.35,1.64-3.3,2.67-5.41,2.87l-31.45,3c-.26.02-.52.04-.77.04Z"/>
        <path class="cls-10" d="M511.58,372.86c-4.08,0-7.56-3.1-7.95-7.24l-1.53-15.99-1.86.18c-.25.02-.51.04-.76.04-1.85,0-3.65-.64-5.09-1.83-1.64-1.35-2.67-3.3-2.87-5.41l-1.44-15.04c-.42-4.4,2.81-8.3,7.2-8.72l36.46-3.48c.25-.02.51-.04.76-.04,1.85,0,3.65.64,5.09,1.83,1.64,1.35,2.67,3.3,2.87,5.41l1.44,15.04c.2,2.11-.44,4.22-1.8,5.85-1.35,1.64-3.3,2.67-5.41,2.87l-1.81.17,1.53,15.99c.2,2.11-.44,4.22-1.79,5.85-1.35,1.64-3.3,2.67-5.41,2.87l-16.86,1.61c-.26.02-.52.04-.77.04Z"/>
        <path class="cls-10" d="M553.46,368.86c-1.85,0-3.65-.64-5.09-1.83-1.64-1.35-2.67-3.3-2.87-5.41l-3.72-38.99c-.42-4.4,2.81-8.3,7.2-8.72l30.99-2.96c.25-.02.51-.04.76-.04,1.85,0,3.65.64,5.09,1.83,1.64,1.35,2.67,3.3,2.87,5.41l1.18,12.41c.09.93.01,1.84-.2,2.7l1,10.46c.42,4.4-2.81,8.3-7.2,8.72l-6.62.63.53,5.51c.2,2.11-.44,4.22-1.79,5.85-1.35,1.64-3.3,2.67-5.41,2.87l-15.95,1.52c-.25.02-.51.04-.76.04Z"/>
        <path class="cls-10" d="M586.53,365.7c-1.85,0-3.65-.64-5.09-1.83-1.64-1.35-2.67-3.3-2.87-5.41l-3.72-38.99c-.2-2.11.44-4.22,1.79-5.85,1.35-1.64,3.3-2.67,5.41-2.87l23.19-2.21c.8-.08,1.6-.11,2.38-.11,2.38,0,4.7.36,6.89,1.06,3.45,1.11,6.33,3.15,8.58,6.07,2.17,2.83,3.48,6.48,3.9,10.85.11,1.13.14,2.36.11,3.65-.05,1.72-.36,3.45-.91,5.14-.48,1.46-1.18,2.82-2.09,4.09l6.29,10.91c1.36,2.36,1.42,5.24.18,7.66-1.25,2.42-3.64,4.04-6.35,4.29l-17.78,1.7c-.26.02-.51.04-.76.04-.28,0-.56-.02-.84-.04-.51.15-1.04.26-1.58.31l-15.95,1.52c-.25.02-.51.04-.76.04Z"/>
        <path class="cls-10" d="M638.2,361.43c-4.93,0-9.32-.94-13.04-2.8-5.44-2.71-9.1-7.15-10.6-12.83-.01-.05-.03-.1-.04-.15-.28-1.17-.55-2.64-.83-4.5-.25-1.7-.48-3.58-.67-5.59-.19-1.93-.31-3.76-.38-5.44-.07-1.82-.08-3.27-.01-4.43.35-6.06,3.08-11.26,7.89-15.04,4.22-3.32,9.75-5.32,16.44-5.96,1.4-.13,2.78-.2,4.09-.2,4.99,0,9.44.98,13.21,2.9,5.46,2.79,9.11,7.33,10.56,13.14.28,1.1.55,2.52.82,4.32.25,1.68.47,3.51.66,5.47.2,2.06.33,3.98.41,5.7.08,1.83.09,3.31.03,4.53-.34,6.02-3.09,11.12-7.95,14.86-4.21,3.23-9.73,5.19-16.43,5.83-1.43.14-2.83.21-4.17.21Z"/>
        <path class="cls-10" d="M677.83,357.64c-5.05,0-9.55-.98-13.37-2.91-5.55-2.8-9.27-7.38-10.77-13.24-.31-1.27-.58-2.69-.84-4.45-.25-1.64-.47-3.49-.66-5.49-.18-1.91-.3-3.69-.37-5.3-.07-1.76-.07-3.17,0-4.32.36-6.1,3.17-11.33,8.13-15.11,4.3-3.28,9.91-5.28,16.66-5.92,1.57-.15,3.09-.23,4.54-.23,5.14,0,9.64.96,13.37,2.86,5.7,2.91,9.29,7.91,10.12,14.07.01.1.02.2.03.3l.15,1.52c.05.55.05,1.09,0,1.62.16.51.26,1.04.31,1.58l1.19,12.51c.61,6.37-1.86,12.12-6.95,16.18-4.29,3.42-9.96,5.43-17.35,6.13-1.43.14-2.84.21-4.18.21Z"/>
        <path class="cls-10" d="M717.03,353.9c-5.05,0-9.55-.98-13.37-2.91-5.55-2.8-9.27-7.38-10.77-13.24,0-.04-.02-.07-.03-.11-.29-1.19-.55-2.61-.81-4.35-.25-1.62-.47-3.47-.66-5.48-.18-1.91-.3-3.7-.37-5.31-.07-1.73-.07-3.14,0-4.31.36-6.11,3.17-11.33,8.13-15.12,4.3-3.28,9.91-5.28,16.66-5.92,1.57-.15,3.09-.23,4.54-.23,5.14,0,9.64.96,13.37,2.86,5.7,2.91,9.29,7.91,10.12,14.07.01.1.02.2.03.29l.15,1.52c.05.55.05,1.09,0,1.62.16.51.26,1.04.31,1.58l1.19,12.51c.61,6.37-1.86,12.12-6.95,16.18-4.28,3.42-9.96,5.43-17.35,6.13-1.43.14-2.83.21-4.18.21Z"/>
        <path class="cls-10" d="M740.71,350.97c-4.08,0-7.56-3.1-7.95-7.24l-3.72-38.99c-.2-2.11.44-4.22,1.79-5.85,1.35-1.64,3.3-2.67,5.41-2.87l30.54-2.92c.25-.02.51-.04.76-.04,1.85,0,3.65.64,5.09,1.83,1.64,1.35,2.67,3.3,2.87,5.41l1.09,11.39c.16,1.65-.2,3.24-.94,4.6l.42,4.34c1.55,1.3,2.6,3.19,2.81,5.36l1.26,13.22c.2,2.11-.44,4.22-1.79,5.85s-3.3,2.67-5.41,2.87l-31.45,3c-.26.02-.52.04-.77.04Z"/>
        <path class="cls-10" d="M770.6,321.39c-4.11,0-7.57-3.13-7.96-7.23v-.1c-.08-.78-.04-1.56.11-2.33.22-1.11.3-2.54.24-4.24-.07-1.94-.3-3.99-.67-6.1-.41-2.31.21-4.68,1.7-6.49,1.29-1.56,3.16-2.63,5.16-2.9l12.26-1.63c.35-.05.7-.07,1.05-.07,1.8,0,3.55.61,4.98,1.74,1.7,1.35,2.78,3.34,2.99,5.5v.1c.28,2.83.24,5.54-.1,8.06-.33,2.47-.88,4.74-1.61,6.76-.82,2.26-1.79,4.1-2.95,5.64-1.49,1.97-3.8,3.14-6.26,3.17,0,0-8.91.13-8.95.13Z"/>
        <path class="cls-10" d="M788.21,346.44c-4.08,0-7.56-3.1-7.95-7.24l-3.72-38.99c-.2-2.11.44-4.22,1.79-5.85,1.35-1.64,3.3-2.67,5.41-2.87l15.5-1.48c2.13-.2,4.14-.31,5.97-.31,2.14,0,4.13.14,5.9.42,3.76.59,6.97,1.76,9.55,3.46,2.74,1.81,4.89,4.18,6.39,7.02,1.25,2.36,2.15,5.04,2.69,7.96.44,2.37.77,4.96.99,7.68.16,2.09.26,4.11.3,6.04.05,2.63-.29,5.17-1.01,7.55-.89,2.91-2.52,5.51-4.85,7.75-2.22,2.12-5.11,3.77-8.83,5.04-3.19,1.09-7.1,1.84-11.96,2.3l-15.39,1.47c-.26.02-.52.04-.77.04Z"/>
      </g>
      <text class="cls-1" transform="translate(428.39 372.8) rotate(-5.46)"><tspan x="0" y="0">GET F</tspan><tspan class="cls-6" x="157.64" y="0">R</tspan><tspan class="cls-7" x="194.42" y="0">OGGE’D</tspan></text>
    </g>
  </g>
</svg>